<?xml version="1.0" standalone="no"?>
<!DOCTYPE svg PUBLIC "-//W3C//DTD SVG 20010904//EN"
 "http://www.w3.org/TR/2001/REC-SVG-20010904/DTD/svg10.dtd">
<svg version="1.0" xmlns="http://www.w3.org/2000/svg"
 width="361.000000pt" height="599.000000pt" viewBox="0 0 361.000000 599.000000"
 preserveAspectRatio="xMidYMid meet">

<g transform="translate(0.000000,599.000000) scale(0.100000,-0.100000)"
fill="#000000" stroke="none">
<path d="M1543 5819 l-253 -170 0 -349 0 -349 180 -87 180 -87 0 -1038 0
-1038 71 -22 c38 -12 72 -19 75 -17 2 3 3 752 2 1665 l-3 1661 -252 -169z"/>
<path d="M2047 2288 l-168 -71 348 -149 348 -148 510 1 510 1 -85 28 c-192 64
-1280 410 -1287 410 -4 -1 -84 -33 -176 -72z"/>
<path d="M710 1550 l0 -70 70 0 70 0 0 70 0 70 -70 0 -70 0 0 -70z"/>
<path d="M452 1258 c5 -233 13 -276 66 -331 65 -68 193 -102 329 -87 89 9 149
37 195 88 58 64 68 114 68 344 l0 198 -69 0 -69 0 -4 -192 c-3 -168 -5 -197
-22 -224 -32 -52 -70 -69 -161 -69 -93 0 -129 14 -162 64 -22 32 -23 42 -23
227 l0 194 -76 0 -76 0 4 -212z"/>
<path d="M1380 1400 l0 -70 118 0 c100 0 122 -3 150 -20 45 -27 62 -74 62
-165 l0 -75 -235 0 -235 0 0 -75 0 -75 598 0 c395 0 610 4 636 11 21 6 50 22
64 36 21 22 26 23 34 10 38 -69 122 -122 214 -137 65 -11 161 3 214 30 206
105 211 456 7 558 -62 31 -149 44 -218 33 -152 -25 -232 -109 -258 -269 -11
-70 -24 -97 -50 -111 -11 -6 -142 -11 -322 -11 l-304 -1 -6 118 c-4 94 -9 126
-27 159 -49 95 -122 124 -314 124 l-128 0 0 -70z m1547 -81 c17 -11 41 -40 54
-65 18 -38 21 -58 17 -118 -8 -118 -58 -176 -152 -176 -86 0 -137 48 -155 146
-33 173 102 295 236 213z"/>
<path d="M450 260 l0 -261 58 3 57 3 0 148 c0 81 2 147 5 146 3 -1 34 -34 70
-74 36 -40 67 -73 70 -73 3 0 34 33 70 73 36 41 67 74 70 74 3 1 4 -66 2 -149
l-3 -150 60 0 61 0 0 260 0 260 -42 -1 c-42 0 -46 -3 -128 -99 -47 -55 -87
-99 -90 -99 -3 -1 -43 44 -90 98 -82 97 -86 100 -127 100 l-43 1 0 -260z"/>
<path d="M1207 504 c-70 -22 -131 -87 -153 -160 -31 -108 6 -235 86 -293 99
-72 264 -57 347 31 78 83 84 250 12 347 -53 72 -191 108 -292 75z m167 -114
c80 -70 72 -209 -14 -268 -85 -58 -190 18 -190 137 0 133 116 208 204 131z"/>
<path d="M1740 514 c-14 -2 -44 -7 -67 -10 l-43 -5 0 -239 0 -238 53 -8 c98
-14 201 -7 253 15 62 28 81 46 109 101 66 133 22 296 -97 354 -53 26 -151 40
-208 30z m130 -114 c70 -36 98 -131 62 -213 -26 -59 -61 -81 -126 -82 l-51 0
-3 158 -3 157 41 0 c23 0 59 -9 80 -20z"/>
<path d="M2335 511 c-148 -39 -223 -200 -165 -353 37 -100 116 -151 236 -151
161 -1 265 114 252 277 -8 96 -53 167 -131 207 -42 22 -145 33 -192 20z m139
-112 c40 -31 59 -77 59 -139 0 -66 -22 -114 -66 -140 -40 -25 -73 -25 -116 -2
-46 25 -71 74 -71 140 0 101 47 162 125 162 28 0 51 -7 69 -21z"/>
<path d="M2730 260 l0 -260 55 0 54 0 3 149 3 149 115 -146 c113 -145 116
-147 158 -150 l42 -3 0 261 0 260 -60 0 -59 0 2 -150 c1 -82 0 -150 -3 -149
-3 0 -57 67 -120 149 -112 146 -116 150 -152 150 l-38 0 0 -260z"/>
</g>
</svg>
